# xmcd CD database file
#
# Track frame offsets:
#	150
#	11229
#	36636
#	58393
#	79646
#	96726
#	127517
#	146441
#	171441
#	182864
#	205098
#
# Disc length: 2976 seconds
#
# Revision: 0
# Processed by: cddbd v1.5.1PL0 Copyright (c) Steve Scherf et al.
# Submitted via: CDex 1.51
#
DISCID=a10b9e0b
DTITLE=Fabien Mary - Twilight
DYEAR=2002
DGENRE=Jazz
TTITLE0=I' m getting sentimental over you
TTITLE1=Social Call
TTITLE2=Lullaby of the leaves
TTITLE3=Stockholm sweetnin'
TTITLE4=I've got my love to keep me warm
TTITLE5=I should care
TTITLE6=Tonk
TTITLE7=Fantan
TTITLE8=Mister M.
TTITLE9=Shiny stockings
TTITLE10=Perdido
EXTD=YEAR: 2002
EXTT0=
EXTT1=
EXTT2=
EXTT3=
EXTT4=
EXTT5=
EXTT6=
EXTT7=
EXTT8=
EXTT9=
EXTT10=
PLAYORDER=
